<svg id="visual" viewBox="0 0 900 600" width="900" height="600" xmlns="http://www.w3.org/2000/svg" xmlns:xlink="http://www.w3.org/1999/xlink" version="1.1"><rect x="0" y="0" width="900" height="600" fill="#6600FF"></rect><defs><linearGradient id="grad1_0" x1="33.3%" y1="0%" x2="100%" y2="100%"><stop offset="20%" stop-color="#6600ff" stop-opacity="1"></stop><stop offset="80%" stop-color="#6600ff" stop-opacity="1"></stop></linearGradient></defs><defs><linearGradient id="grad2_0" x1="0%" y1="0%" x2="66.7%" y2="100%"><stop offset="20%" stop-color="#6600ff" stop-opacity="1"></stop><stop offset="80%" stop-color="#6600ff" stop-opacity="1"></stop></linearGradient></defs><g transform="translate(900, 0)"><path d="M0 486.7C-56.7 450.4 -113.4 414.1 -157.3 379.7C-201.1 345.4 -232.1 313 -285 285C-337.8 256.9 -412.4 233.1 -449.7 186.3C-487 139.5 -486.9 69.7 -486.7 0L0 0Z" fill="#15042f"></path></g><g transform="translate(0, 600)"><path d="M0 -486.7C66.9 -480.3 133.8 -473.9 183.3 -442.5C232.8 -411.2 264.8 -354.9 311.1 -311.1C357.4 -267.3 418 -236 449.7 -186.3C481.3 -136.5 484 -68.2 486.7 0L0 0Z" fill="#15042f"></path></g></svg>