<svg id="visual" viewBox="0 0 900 600" width="900" height="600" xmlns="http://www.w3.org/2000/svg" xmlns:xlink="http://www.w3.org/1999/xlink" version="1.1"><rect x="0" y="0" width="900" height="600" fill="#6600FF"></rect><path d="M0 392L129 400L257 368L386 443L514 373L643 397L771 366L900 387L900 601L771 601L643 601L514 601L386 601L257 601L129 601L0 601Z" fill="#0066ff"></path><path d="M0 423L129 463L257 442L386 479L514 437L643 458L771 428L900 426L900 601L771 601L643 601L514 601L386 601L257 601L129 601L0 601Z" fill="#007aff"></path><path d="M0 495L129 508L257 507L386 510L514 477L643 450L771 492L900 467L900 601L771 601L643 601L514 601L386 601L257 601L129 601L0 601Z" fill="#008cff"></path><path d="M0 538L129 490L257 533L386 517L514 487L643 522L771 511L900 532L900 601L771 601L643 601L514 601L386 601L257 601L129 601L0 601Z" fill="#2b9dfc"></path><path d="M0 550L129 535L257 559L386 568L514 544L643 534L771 540L900 558L900 601L771 601L643 601L514 601L386 601L257 601L129 601L0 601Z" fill="#4facf7"></path></svg>